<?xml version="1.0" encoding="UTF-8"?>
<svg id="Calque_1" xmlns="http://www.w3.org/2000/svg" version="1.1" viewBox="0 0 595.28 268.61">
  <!-- Generator: Adobe Illustrator 29.2.1, SVG Export Plug-In . SVG Version: 2.1.0 Build 116)  -->
  <defs>
    <style>
      .st0 {
        fill: #010101;
      }
    </style>
  </defs>
  <g>
    <polygon class="st0" points="216.38 162.61 222.21 162.61 214.78 190.26 232.09 190.26 230.63 195.52 207.54 195.52 216.38 162.61"/>
    <path class="st0" d="M239.19,170.69h5.69l-6.68,24.83h-5.69l6.68-24.83ZM241.45,161.48h6.16l-1.5,5.41h-6.11l1.46-5.41Z"/>
    <polygon class="st0" points="245.68 170.69 251.56 170.69 253.34 188.85 264.77 170.69 270.98 170.69 254.24 195.71 249.11 195.71 245.68 170.69"/>
    <path class="st0" d="M272.1,170.69h5.69l-1.46,5.6c2.73-3.95,5.97-6.35,10.39-6.07l-1.6,6.02h-.33c-4.99,0-9.31,3.2-11.14,10.06l-2.45,9.22h-5.74l6.63-24.83Z"/>
    <path class="st0" d="M280.71,189.27c0-2.49.89-4.47,2.35-5.97,1.97-1.93,4.98-3.01,8.51-3.01,2.92,0,5.5.56,7.71,1.22l.14-.42c.14-.61.28-1.31.28-2.07,0-2.31-1.6-3.76-5.5-3.76-2.49,0-4.8.56-6.77,1.36l-.94-4.61c2.54-.99,5.46-1.65,8.84-1.65,6.49,0,9.92,2.82,9.92,7.67,0,1.22-.23,2.4-.52,3.62l-3.71,13.87h-5.5l.85-3.29c-2.12,2.35-4.84,3.81-8.18,3.81-4.23,0-7.48-2.68-7.48-6.77M298.11,186.03l.33-1.13c-1.6-.52-3.76-.94-6.02-.94-2.07,0-3.72.61-4.8,1.64-.8.8-1.22,1.84-1.22,3.01,0,1.98,1.55,3.34,4.05,3.34,3.43,0,6.72-2.59,7.66-5.92"/>
    <path class="st0" d="M311.04,170.69h5.69l-6.68,24.83h-5.69l6.68-24.83ZM313.3,161.48h6.16l-1.5,5.41h-6.11l1.46-5.41Z"/>
    <path class="st0" d="M312.68,191.62l3.43-3.48c2.63,2.64,5.5,3.48,8.04,3.48,2.21,0,3.95-1.13,3.95-2.96,0-1.22-1.13-2.07-3.62-3.1-4.14-1.69-7.15-3.29-7.15-7.1,0-4.66,3.76-8.28,9.73-8.28,3.9,0,7.52,1.74,9.55,3.53l-3.15,3.67c-2.26-1.79-4.51-2.73-6.82-2.73-2.45,0-3.81,1.22-3.81,2.82,0,1.27,1.13,2.07,3.95,3.24,3.76,1.6,6.82,3.34,6.82,6.96,0,5.12-4.23,8.42-9.92,8.42-3.76,0-8.09-1.46-11-4.47"/>
    <path class="st0" d="M361.45,181.56c0,3.81-1.65,7.52-4.37,10.2-2.59,2.63-6.16,4.33-10.11,4.33-7.1,0-11.66-4.8-11.66-11.33,0-3.86,1.64-7.52,4.37-10.25,2.58-2.64,6.16-4.33,10.11-4.33,7.1,0,11.66,4.8,11.66,11.38M352.79,188.75c1.93-1.88,3.01-4.66,3.01-7.05,0-4.23-2.59-6.59-6.35-6.59-2.12,0-4.05.99-5.5,2.4-1.93,1.88-3.01,4.66-3.01,7.05,0,4.23,2.59,6.58,6.35,6.58,2.12,0,4.09-.94,5.5-2.4"/>
    <path class="st0" d="M366.66,170.69h5.69l-.85,3.15c1.97-1.93,4.37-3.67,7.57-3.67,4.56,0,7.52,2.87,7.52,7.43,0,1.32-.38,2.92-.75,4.37l-3.57,13.54h-5.69l3.67-13.78c.23-.8.38-1.79.38-2.49,0-2.49-1.6-3.9-4.33-3.9-3.2,0-5.83,2.54-6.82,6.21l-3.72,13.97h-5.74l6.63-24.83Z"/>
    <path class="st0" d="M384.25,191.62l3.43-3.48c2.63,2.64,5.5,3.48,8.04,3.48,2.21,0,3.95-1.13,3.95-2.96,0-1.22-1.13-2.07-3.62-3.1-4.14-1.69-7.15-3.29-7.15-7.1,0-4.66,3.76-8.28,9.73-8.28,3.9,0,7.52,1.74,9.55,3.53l-3.15,3.67c-2.26-1.79-4.51-2.73-6.82-2.73-2.45,0-3.81,1.22-3.81,2.82,0,1.27,1.13,2.07,3.95,3.24,3.76,1.6,6.82,3.34,6.82,6.96,0,5.12-4.23,8.42-9.92,8.42-3.76,0-8.09-1.46-11-4.47"/>
  </g>
  <g>
    <path d="M82.74,133.62c-4.49,5.28-9.21,4.94-5.85-2.85,1.54-3.57,5.33-5.67,5.75-9.57.51-4.63-5.06-17.61,5.55-14.85.99-11.35,2.9-21.33,9.05-31.04,12.48-19.69,34.73-27.62,57.23-21.32,27.89,7.8,41.64,42.11,34.08,68.72,12.56-1.2-.54,13.65-1.07,19.43-.32,3.47,3.96,7,2.58,12.9-.74,3.16-3.29,2.38-4.7.04-.65-1.08-.62-2.98-1.71-3.46-6.66,26.99-22.39,58.21-52.1,64.34l-66.79-.27c-2.14-1.29-2.51-4.48-.82-6.26,2.21-2.32,9.99-.15,12.99-1.6,1.96-2.82.8-5.65-2.63-6.05-3.89-.46-21.37.92-23.05-.68-.26-.25-1.07-2.05-1.12-2.44-.86-7.08,13.06-4.02,17.05-3.94,3.07.06,12.85.77,14.19-2.21,1-2.82-.23-5.1-3.24-5.47-5.51-.67-12.14.61-17.48.57-2.47-.02-6.44-.4-7.5-2.87-3.24-7.57,12.14-4.45,15.7-4.74,7.83-.62,7.28-7,1.63-7.67-9.57-1.14-21.28.88-31.09,0-1.49-.37-2.38-1.48-2.52-2.98-.65-7.03,13.48-4.12,17.75-4.08,6.29.07,14.12.51,20.22,0,3.23-.27,6.19-1.16,5.05-5.08-1.64-5.68-18.21.08-22.48-3.17-2.27-1.73-1.1-6.49,1.04-6.49h24.82c.14-.4-.55-.65-.55-.82v-16.09ZM186.91,124.89c3.68-16.8,2.95-32.78-5.91-47.81-22.98-38.98-79.66-27.93-89.27,15.63-1.35,6.11-1.62,12.44-3,18.54l-1.68-3.76c-4.87-.72-4,4.4-3.76,7.85.11,1.65,1.07,4.07,1.01,5.5-.05,1.19-1.31,2.15-1.02,3.51l2.16.03.3,1.61,2.45-1.64c-2.07,4.64-4.55,6.41-3.68,12.14.91,5.96,6.25,20.08,8.58,26.31,1.91,5.11,4.12,10.12,6.56,14.99,2.35-2.51,2.58-6.25,4.47-9.43,3.46-5.84,12.4-11.9,19.15-11.19,4.22.44,14.03,1.75,17.74,2.99,3.61,1.2,10.09,8.8,11.64,12.36,2.12,4.86,2.18,9.71,3.99,14.54,5.39-5.9,11.18-11.98,16.07-18.27,4.37-5.62,9.76-12.12,9.85-19.64.03-2.4-1.75-4.72-1.1-7.33,2.19-.42.21,2.9,1.91,3.81l.52-2.77,2.23-.45c.24-4.74,3.53-8.5,5.26-12.76.5-1.25,1.87-4.03,1.05-5.03-1.52-1.59-3.79-.25-5.51.3ZM78.38,134.16c1.31.1,5.29-6.2,2.99-5.99-.46.04-3.45,4.87-2.99,5.99ZM187.99,154.34c.21-2.28-.18-4.57-1.36-6.54-1.68,1.43-.09,5.33,1.36,6.54ZM137.28,184.88c-1.69,4.77-8.32,7.51-2.36,11.9,5.37,3.95,8.78.91,11.74-3.89,3.58-5.81,4.83-10.85.67-16.69-6.25-8.78-14.33-11.44-25.04-11.54-3.3-.03-12.71,4.3-14.39,6.92-.67,1.04-2.59,8.53-2.64,9.9-.22,5.68,6.68,17.27,12.68,11.59,3.26-3.09-.72-7.28-.28-10.92l10.63,2.73h9Z"/>
    <path d="M36.25,179.57c1.55-.23,9.94.12,11.2.5,2.49.75,2.87,5.77-.13,6.74-.84.27-4.26.76-5.23.78-2.65.08-9,0-9.84-2.7-1.02-3.29.99-4.88,4-5.33Z"/>
    <path d="M58.59,215.28c-2.16,2.3-14.41,2.53-12.16-4.26.92-2.76,8.57-2.72,10.83-2.04,2.08.62,2.67,4.86,1.33,6.3Z"/>
    <path d="M123.83,109.98c.6.6,1.78.83,1.99,1.82-3.12.02-6.82-.03-9.85-.78-2.32-.57-5.79-2.89-7.91-2.99-2.26-.11-5.16,1.36-7.33,1.86.02-1.9,6.17-7.32,7.37-7.22,3.03,3.17,7.87,2.35,11.72,3.96,2.18.91,2.61,1.96,4.01,3.35Z"/>
    <path d="M169.38,112.4c1.7,3.03,4.7,5.32,4.43,9.22-1.87-1.26-4.74-3.83-6.95-4.25-2.19-.42-5.74.69-8.59.43-2.9-.27-6.09-1.7-9-2.18l7.41-3.22c4.48-.24,8.39,2.06,12.69,0Z"/>
    <path d="M105.65,118.09c2.84,3.8,5.68,3.95,10.11,4.11,1.09.04,2.1-.55,3.19-.52,1.92.07,4.22,1.38,6.33,1.05-5.02-6.38-12.19-8.85-19.63-4.63ZM107.29,117.8l2.21-.28,2.14,3.56c-.57.48-5.31-2.32-4.35-3.28ZM113.93,118.28c-.35-.41-.48-1.03-.41-1.27.04-.24.15-.44.39-.42.24,0,2.53.31,2.82.39l.28.09s.04.11.15.26c.11.13.13.22.13.22,0,0-.33.52-1.42.87-1.07.35-1.59.26-1.94-.15ZM116,120.82l1.92-3.01c1.14.02,4.04,2.69,4.63,3.82l-6.55-.81Z"/>
    <path d="M104.55,115.08c-.03-.8,1.96-.83,2.61-.93,6.01-.96,12.01-.49,16.97,3.43.23.18,1.58,1.06.86,1.32-2.34-1.26-7.27-3.82-9.81-3.82h-10.64Z"/>
    <path d="M160.45,121.08c2.8.44,7.87,3.52,10.09,5.45-2.98-.61-9-4.36-11.73-4.36h-8.45v-.54c.68.21,1.58-.55,1.91-.55,2.4,0,6-.34,8.18,0Z"/>
    <path d="M146,154.33c.27-.91,1.44-.95,2.19-1.89,1.38-1.71,1.32-4.4,1.03-6.51-.24-1.75-1.57-3.07-1.32-4.68,3.88,3.36,5.18,13.56-1.9,13.08Z"/>
    <path d="M160.18,143.43c-2.38-1.48-4.69-3.04-6.55-5.17l-5.98-7.92c3.71,3.71,8.07,7.16,11.45,11.18.51.61,1.32.89,1.08,1.91Z"/>
    <path d="M119.28,151.06c-6.84-2.74-6.19-10.64,0-13.63-.32,1.86-2.21,2.6-2.85,4.51-1.33,4.02.28,6.28,2.85,9.12Z"/>
    <path d="M145.45,152.16c-1.14-.31-.72-2.1-1.64-2.99-1.03-1.01-2.54-.92-3.82-.58-1.89.5-3.44,2.91-5.44,2.76,2.89-5.21,11.31-7.1,10.9.81Z"/>
    <path d="M121.46,127.62c-3.91,3.29-8.98,6.62-14.18,7.08l14.18-7.08Z"/>
    <path d="M129.63,150.52c-1.13-.93-1.71-2.29-3-3.26-2.18-1.64-3.88-2.28-6.26-.55,1.84-5.56,8.99-.42,9.26,3.81Z"/>
    <path d="M152.54,156.52c1.15,1.12,2,8.51,1.64,10.36l-2.71-10.09,1.08-.26Z"/>
    <path d="M87.09,112.9l-1.91-1.1-.26,5.46c-2.36-3.54-.12-10.99,2.17-4.36Z"/>
    <path d="M187.46,133.07l1.64-4.63-1.64-.55c4.27-2.86,2.74,3.96,0,5.18Z"/>
    <path d="M111.64,150.53l-4.9,7.08c-.62-1.39,3.84-8.11,4.9-7.08Z"/>
    <path d="M120.77,167.01c5.81-1,6.52,1.87,9.17,2.04,1.84.12,3.06-.96,5.72-.27,3.52.91,8.5,5.94,10.81,8.63-3.66,6.09-10.08,6.28-16.55,5.82-7.38-.52-18.47-2.72-19.32-11.62.31-.96,8.78-4.36,10.16-4.6ZM142.18,175.06c-1.5-2.36-6.17-5.49-8.94-5.41-1.21.04-2.69,1.04-3.81.91-1.31-.15-3.07-2.34-5.03-2.57-2.72-.32-7.13,1.6-9.49,2.99l27.27,4.08ZM144.91,177.25l-33.27-5.46c1.8,7.29,8.58,8.8,15.09,9.72,6.57.93,13.81,1.83,18.18-4.27Z"/>
    <path class="st0" d="M167.52,128.39c-.26-.35-1.46-1.38-3.87-2.84-2.4-1.46-4.32-1.79-6.68-1.81-2.34-.02-6.64,2.1-7.88,2.64s-.9.68-.9.68c0,0,4,.72,5.24.83,1.27.11,1.97,1.05,4.63,1.86,2.66.79,4.19,1.05,6.75.44,2.53-.61,2.99-1.46,2.99-1.46l-.28-.33ZM154.59,127.52c-.33-.2-.74-.17-1.57-.28-.81-.09-2.21-.26-2.42-.42-.22-.13-.07-.35.02-.39.09-.04,1.77-.85,3.23-1.4,1.44-.55,1.4-.5,1.31-.11-.07.37-.22.92.02,1.62.26.7.55,1.53.55,1.53,0,0-.79-.35-1.14-.55ZM159.29,125.93c-.37.39-.87.76-1.57.44-.7-.33-1.73-1.03-1.75-1.29-.04-.28.04-.37.46-.48.44-.11,1.29-.2,2.08-.11.76.11,1.09.22,1.16.24.07.02.11.11.11.11,0,0-.09.68-.48,1.09ZM167.04,128.81l-.07.17s-2.14.94-3.04,1c-.92.04-1.9.02-2.64-.13-.72-.15-.98-.2-.98-.2l1.75-1.35,1.51-2.16s1.18.59,2.34,1.42c1.16.83,1.16.85,1.16.85,0,0,.04.24-.02.39Z"/>
  </g>
  <g>
    <path class="st0" d="M284,105.74c0,10.98-4.62,21.96-12.62,29.97-7.6,7.59-18.06,12.52-30.59,12.52-19.81,0-32.84-13.76-32.84-31.82,0-10.98,4.62-21.96,12.62-29.97,7.59-7.59,18.06-12.52,30.58-12.52,19.81,0,32.84,13.75,32.84,31.82M259.27,126.57c5.23-5.24,8.31-12.93,8.31-19.81,0-10.67-6.46-18.27-18.27-18.27-6.67,0-12.42,2.87-16.63,7.08-5.24,5.24-8.31,12.93-8.31,19.81,0,10.67,6.47,18.27,18.27,18.27,6.67,0,12.42-2.88,16.63-7.08"/>
    <path class="st0" d="M292.63,91.98h15.6l-1.54,5.75c3.9-3.49,8.83-6.77,14.98-6.77,9.85,0,16.22,6.05,16.22,16.01,0,3.08-.92,6.98-1.85,10.47l-7.9,29.56h-15.6l8.11-30.17c.41-1.54.72-3.59.72-4.93,0-4.41-2.77-6.77-7.6-6.77-6.16,0-10.16,4.41-11.9,10.98l-8.31,30.89h-15.6l14.68-55.01Z"/>
    <path class="st0" d="M337.9,123.39c0-8.93,3.59-16.94,9.44-22.79,5.95-5.95,14.16-9.65,22.99-9.65,12.11,0,18.78,5.54,22.58,12.11l-11.91,8.42c-2.77-4.21-5.75-7.18-11.91-7.18-3.59,0-7.08,1.74-9.85,4.52-3.59,3.59-5.95,8.93-5.95,14.57,0,7.08,4.72,11.6,10.78,11.6,4.83,0,8.31-1.95,12.42-5.44l8.01,10.16c-5.75,5.13-11.6,8.52-20.94,8.52-14.99,0-25.66-9.85-25.66-24.84"/>
    <polygon class="st0" points="403.28 72.07 418.88 72.07 398.77 146.99 383.16 146.99 403.28 72.07"/>
    <path class="st0" d="M424.43,124.93c.51,6.47,4.41,10.78,12.62,10.78,4.1,0,7.7-1.23,12.21-4.41l7.18,9.65c-4.93,4.1-11.8,7.29-21.14,7.29-15.81,0-25.45-9.24-25.45-24.43,0-8.52,3.69-17.24,9.95-23.5,5.64-5.65,13.45-9.34,22.68-9.34,14.27,0,22.48,9.24,22.48,21.45,0,3.9-1.02,8.31-2.77,12.52h-37.77ZM425.86,115.18h23.91c.31-1.03.51-2.26.51-3.59,0-4.52-2.67-8.11-9.03-8.11-4.31,0-8.11,1.74-10.98,4.62-1.95,1.95-3.39,4.31-4.41,7.08"/>
    <path class="st0" d="M489.09,117.03c0-11.19,4.72-21.96,12.73-29.97,8.01-8,19.19-13.14,32.12-13.14,15.19,0,24.32,5.85,29.35,12.42l-11.7,10.37c-4.21-4.62-9.85-8.31-18.88-8.31-7.39,0-14.06,3.08-18.88,7.9-5.03,5.03-8.31,12.42-8.31,20.22,0,11.19,8.21,17.24,18.37,17.24,5.54,0,9.65-1.33,12.83-2.77l3.39-11.7h-15.91l3.69-13.65h31.2l-10.16,35.82c-7.08,4-15.29,6.78-26.07,6.78-16.42,0-33.77-9.75-33.77-31.2"/>
  </g>
</svg>