<?xml version="1.0" encoding="UTF-8" standalone="no"?><!DOCTYPE svg PUBLIC "-//W3C//DTD SVG 1.1//EN" "http://www.w3.org/Graphics/SVG/1.1/DTD/svg11.dtd"><svg width="100%" height="100%" viewBox="0 0 1480 1151" version="1.1" xmlns="http://www.w3.org/2000/svg" xmlns:xlink="http://www.w3.org/1999/xlink" xml:space="preserve" xmlns:serif="http://www.serif.com/" style="fill-rule:evenodd;clip-rule:evenodd;stroke-linejoin:round;stroke-miterlimit:2;"><g><path d="M1479.375,575.458c0,317.792 -257.75,575.333 -575.5,575.333c-39.667,0 -78.292,-3.917 -115.667,-11.708c-1.75,-0.167 -3.542,-0.542 -5.125,-0.875c-4.583,-1.083 -9.208,-2.125 -13.833,-3.167c-1.792,-0.542 -3.542,-0.875 -5.125,-1.25c-161.375,-41.083 -304.5,-150.75 -379.792,-314.417l-116.542,0c-34.708,0 -62.875,-28.167 -62.875,-62.875c0,-17.375 7.083,-33.292 18.417,-44.625c11.333,-11.333 27.083,-18.417 44.458,-18.417l73,0c-4.25,-20 -7.458,-40.583 -9.375,-61.292l-229.375,0c-34.708,0 -62.875,-28.167 -62.875,-62.875c0,-17.375 7.083,-33.125 18.417,-44.458c11.333,-11.333 27.125,-18.417 44.458,-18.417l230.625,0c3,-24.792 7.625,-49.417 13.625,-73.167l-160.333,0c-34.708,0 -62.875,-28.167 -62.875,-62.875c0,-17.375 7.083,-33.125 18.417,-44.458c11.333,-11.333 27.083,-18.417 44.458,-18.417l210.958,0c90.167,-171.458 269.958,-291.75 464.792,-303.792l0,-2.125c14,-0.875 28,-1.583 42.167,-1.583c15.958,0 31.875,0.708 47.458,1.958c0.167,0.167 0.167,0.375 0.375,0.542c90.542,7.625 176.083,36.125 250.833,81.292c4.958,3 9.917,6.208 14.875,9.375c5.125,3.375 10.458,6.708 15.417,10.292c5.333,3.708 10.458,7.458 15.417,11c0.542,0.542 1.25,0.875 1.958,1.417c4.625,3.542 9.042,7.083 13.458,10.625c2.125,1.583 4.25,3.375 6.208,4.958c3.708,3 7.083,5.833 10.625,9.042c3.375,3 6.917,6.042 10.292,9.042c3.708,3.375 7.25,6.708 10.792,10.083c109.667,104.667 177.833,252.417 177.833,415.917l-0.042,-0.083Z" style="fill:#fff;fill-rule:nonzero;"/><path d="M180.458,731.542l0,0.042c0,34.702 -28.173,62.875 -62.875,62.875l-54.708,0c-34.702,0 -62.875,-28.173 -62.875,-62.875l0,-0.042c0,-34.702 28.173,-62.875 62.875,-62.875l54.708,0c34.702,0 62.875,28.173 62.875,62.875Z" style="fill:#fff;"/></g><g><path d="M820.167,249.417c79.875,-3.292 256.167,-10.208 324.458,22.333c87.708,41.792 97.542,126.958 100.458,213.833c2,58.458 2.125,125.125 0,183.583c-4.958,135.333 -43.583,222.25 -192.625,231.667c-77.583,4.917 -186.792,4.5 -264.583,0.125c-123.125,-6.917 -188.333,-71.75 -195.125,-195.125c-4.25,-77.042 -4.083,-179.75 0,-256.875c8.042,-152.125 86.625,-193.708 227.417,-199.458l0,-0.083Zm-10.5,60.25c-96.792,4.708 -150.25,28 -156.708,134c-4.708,76.875 -4.792,187.917 0,264.75c5.375,85.833 46.958,126.625 132.375,132.125c76.375,4.917 190.875,5.25 267.083,0c108.042,-7.417 128.333,-66.958 132.375,-163.542c2.667,-63.25 2.542,-138.583 0,-201.875c-3.458,-85.625 -18.333,-153.042 -117,-163.25c-76.417,-7.917 -180.458,-5.958 -258.167,-2.167l0.042,-0.042Z" style="fill-rule:nonzero;"/><path d="M893.458,409.125c233.625,-28.042 260,318.583 35.875,334.458c-215.417,15.292 -241.417,-309.792 -35.875,-334.458Zm5.167,60.208c-129.792,17.583 -110.792,229.292 33.042,213.75c136,-14.708 121.208,-234.667 -33.042,-213.75Z" style="fill-rule:nonzero;"/><path d="M1087.208,361.792c50.375,-7.042 63.542,76.667 5.792,79.542c-49.542,2.458 -55.708,-72.542 -5.792,-79.542Z" style="fill-rule:nonzero;"/></g></svg>