<?xml version="1.0" encoding="UTF-8" standalone="no"?>
<!DOCTYPE svg PUBLIC "-//W3C//DTD SVG 1.1//EN" "http://www.w3.org/Graphics/SVG/1.1/DTD/svg11.dtd">
<svg width="100%" height="100%" viewBox="0 0 356 277" version="1.1" xmlns="http://www.w3.org/2000/svg" xmlns:xlink="http://www.w3.org/1999/xlink" xml:space="preserve" xmlns:serif="http://www.serif.com/" style="fill-rule:evenodd;clip-rule:evenodd;stroke-linejoin:round;stroke-miterlimit:2;">
    <g transform="matrix(1,0,0,1,-1893.9,-407.7)">
        <g>
            <g>
                <path d="M2249,546C2249,616 2196.9,673.8 2129.4,682.8C2123.3,683.6 2117.1,684 2110.8,684C2104.5,684 2096.9,683.5 2090.3,682.5C2087.9,682.2 2085.5,681.7 2083.1,681.2C2082.7,681.2 2082.3,681.1 2081.9,681C2080.8,680.7 2079.7,680.5 2078.6,680.2C2078.2,680.1 2077.8,680 2077.4,679.9C2038.7,670 2004.3,643.7 1986.3,604.4L1958.3,604.4C1950,604.4 1943.2,597.6 1943.2,589.3C1943.2,581 1944.9,581.3 1947.6,578.6C1950.3,575.9 1954.1,574.2 1958.3,574.2L1975.8,574.2C1974.8,569.4 1974,564.5 1973.6,559.5L1918.5,559.5C1910.2,559.5 1903.4,552.7 1903.4,544.4C1903.4,536.1 1905.1,536.4 1907.8,533.7C1910.5,531 1914.3,529.3 1918.5,529.3L1973.8,529.3C1974.5,523.3 1975.6,517.4 1977.1,511.7L1938.6,511.7C1930.3,511.7 1923.5,504.9 1923.5,496.6C1923.5,488.3 1925.2,488.6 1927.9,485.9C1930.6,483.2 1934.4,481.5 1938.6,481.5L1989.2,481.5C2010.8,440.4 2054,411.5 2100.8,408.6L2100.8,408.1C2104.2,407.9 2107.5,407.7 2110.9,407.7C2114.3,407.7 2118.6,407.9 2122.3,408.2L2122.3,408.3C2144,410.1 2164.6,417 2182.5,427.8C2183.7,428.5 2184.9,429.3 2186.1,430C2187.3,430.8 2188.6,431.6 2189.8,432.5C2191.1,433.4 2192.3,434.3 2193.5,435.1C2193.6,435.2 2193.8,435.3 2194,435.4C2195.1,436.3 2196.2,437.1 2197.2,437.9C2197.7,438.3 2198.2,438.7 2198.7,439.1C2199.6,439.8 2200.4,440.5 2201.3,441.3C2202.1,442 2203,442.8 2203.8,443.5C2204.7,444.3 2205.5,445.1 2206.4,445.9C2232.7,471 2249.1,506.5 2249.1,545.7L2249,546Z" style="fill:white;fill-rule:nonzero;"/>
                <path d="M1937.2,583.4C1937.2,591.734 1930.434,598.5 1922.1,598.5L1909,598.5C1900.666,598.5 1893.9,591.734 1893.9,583.4C1893.9,575.066 1900.666,568.3 1909,568.3L1922.1,568.3C1930.434,568.3 1937.2,575.066 1937.2,583.4Z" style="fill:white;"/>
            </g>
            <g>
                <path d="M2185.1,604.2L2156.7,604.2L2156.7,553.6C2156.7,548.4 2152.7,541.6 2147.7,539.7C2136.9,535.8 2126.5,544.4 2126.5,555.4L2126.5,604.2L2098.1,604.2L2098.1,518.1L2126.5,518.1L2126.5,530C2131,524.6 2135.1,520.1 2142.1,517.9C2157.9,512.8 2175.4,519.3 2181.9,535C2188.4,550.7 2185.2,545 2185.2,547.7L2185.2,604.3L2185.1,604.2Z" style="fill-rule:nonzero;"/>
                <path d="M2082.5,604.2L2053.6,604.2L2053.6,518.8L2054.3,518.1L2081.8,518.1L2082.5,518.8L2082.5,604.2Z" style="fill-rule:nonzero;"/>
                <path d="M2065.4,477C2089.8,474.1 2090.4,508.1 2066.7,506.6C2047.7,505.4 2047.3,479.1 2065.4,477Z" style="fill-rule:nonzero;"/>
            </g>
        </g>
    </g>
</svg>
