<?xml version="1.0" encoding="UTF-8" standalone="no"?>
<!DOCTYPE svg PUBLIC "-//W3C//DTD SVG 1.1//EN" "http://www.w3.org/Graphics/SVG/1.1/DTD/svg11.dtd">
<svg width="100%" height="100%" viewBox="0 0 356 277" version="1.1" xmlns="http://www.w3.org/2000/svg" xmlns:xlink="http://www.w3.org/1999/xlink" xml:space="preserve" xmlns:serif="http://www.serif.com/" style="fill-rule:evenodd;clip-rule:evenodd;stroke-linejoin:round;stroke-miterlimit:2;">
    <g transform="matrix(1,0,0,1,-1893.9,-80.8)">
        <g>
            <g>
                <path d="M2249,219C2249,289 2196.9,346.8 2129.4,355.9C2123.3,356.7 2117.1,357.1 2110.8,357.1C2104.5,357.1 2096.9,356.6 2090.3,355.6C2087.9,355.3 2085.5,354.8 2083.1,354.3C2082.7,354.3 2082.3,354.2 2081.9,354.1C2080.8,353.8 2079.7,353.6 2078.6,353.3C2078.2,353.2 2077.8,353.1 2077.4,353C2038.7,343.1 2004.3,316.8 1986.3,277.5L1958.3,277.5C1950,277.5 1943.2,270.7 1943.2,262.4C1943.2,254.1 1944.9,254.4 1947.6,251.7C1950.3,249 1954.1,247.3 1958.3,247.3L1975.8,247.3C1974.8,242.5 1974,237.6 1973.6,232.6L1918.5,232.6C1910.2,232.6 1903.4,225.8 1903.4,217.5C1903.4,209.2 1905.1,209.6 1907.8,206.8C1910.5,204.1 1914.3,202.4 1918.5,202.4L1973.8,202.4C1974.5,196.5 1975.6,190.5 1977.1,184.8L1938.6,184.8C1930.3,184.8 1923.5,178 1923.5,169.7C1923.5,161.4 1925.2,161.8 1927.9,159C1930.6,156.3 1934.4,154.6 1938.6,154.6L1989.2,154.6C2010.8,113.4 2054,84.6 2100.8,81.7L2100.8,81.2C2104.2,81 2107.5,80.8 2110.9,80.8C2114.3,80.8 2118.6,81 2122.3,81.3L2122.3,81.4C2144,83.2 2164.6,90.1 2182.5,100.9C2183.7,101.6 2184.9,102.4 2186.1,103.1C2187.3,103.9 2188.6,104.7 2189.8,105.6C2191.1,106.5 2192.3,107.4 2193.5,108.2C2193.6,108.3 2193.8,108.4 2194,108.5C2195.1,109.3 2196.2,110.2 2197.2,111.1C2197.7,111.5 2198.2,111.9 2198.7,112.3C2199.6,113 2200.4,113.7 2201.3,114.5C2202.1,115.2 2203,115.9 2203.8,116.7C2204.7,117.5 2205.5,118.3 2206.4,119.1C2232.7,144.2 2249.1,179.7 2249.1,218.9L2249,219Z" style="fill-rule:nonzero;"/>
                <path d="M1937.2,256.5C1937.2,264.834 1930.434,271.6 1922.1,271.6L1909,271.6C1900.666,271.6 1893.9,264.834 1893.9,256.5C1893.9,248.166 1900.666,241.4 1909,241.4L1922.1,241.4C1930.434,241.4 1937.2,248.166 1937.2,256.5Z"/>
            </g>
            <g>
                <path d="M2185.1,271.3L2156.7,271.3L2156.7,220.7C2156.7,215.5 2152.7,208.7 2147.7,206.8C2136.9,202.9 2126.5,211.5 2126.5,222.5L2126.5,271.3L2098.1,271.3L2098.1,185.2L2126.5,185.2L2126.5,197.1C2131,191.7 2135.1,187.2 2142.1,185C2157.9,179.9 2175.4,186.4 2181.9,202.1C2188.4,217.8 2185.2,212.1 2185.2,214.8L2185.2,271.4L2185.1,271.3Z" style="fill:white;fill-rule:nonzero;"/>
                <path d="M2082.5,271.3L2053.6,271.3L2053.6,185.9L2054.3,185.2L2081.8,185.2L2082.5,185.9L2082.5,271.3Z" style="fill:white;fill-rule:nonzero;"/>
                <path d="M2065.4,144.1C2089.8,141.2 2090.4,175.2 2066.7,173.7C2047.7,172.5 2047.3,146.2 2065.4,144.1Z" style="fill:white;fill-rule:nonzero;"/>
            </g>
        </g>
    </g>
</svg>
