<?xml version="1.0" encoding="UTF-8" standalone="no"?><!DOCTYPE svg PUBLIC "-//W3C//DTD SVG 1.1//EN" "http://www.w3.org/Graphics/SVG/1.1/DTD/svg11.dtd"><svg width="100%" height="100%" viewBox="0 0 1480 1151" version="1.1" xmlns="http://www.w3.org/2000/svg" xmlns:xlink="http://www.w3.org/1999/xlink" xml:space="preserve" xmlns:serif="http://www.serif.com/" style="fill-rule:evenodd;clip-rule:evenodd;stroke-linejoin:round;stroke-miterlimit:2;"><g><path d="M1479.375,575.417c0,291.583 -217,532.458 -498.125,570.208c-25.333,3.375 -51.208,5.125 -77.417,5.125c-29.042,0 -57.75,-2.125 -85.542,-6.375c-10.083,-1.417 -20.208,-3.167 -30.125,-5.292c-1.792,-0.167 -3.542,-0.542 -5.125,-0.875c-4.583,-1.083 -9.208,-2.125 -13.833,-3.167c-1.75,-0.542 -3.542,-0.875 -5.125,-1.25c-161.375,-41.083 -304.5,-150.75 -379.75,-314.417l-116.542,0c-34.708,0 -62.875,-28.167 -62.875,-62.875c0,-17.375 7.083,-33.292 18.417,-44.625c11.333,-11.333 27.083,-18.417 44.458,-18.417l72.958,0c-4.25,-20 -7.458,-40.583 -9.375,-61.292l-229.375,0c-34.708,0 -62.875,-28.167 -62.875,-62.875c0,-17.375 7.083,-33.125 18.417,-44.458c11.333,-11.333 27.083,-18.417 44.458,-18.417l230.625,0c3,-24.792 7.625,-49.417 13.625,-73.167l-160.292,0c-34.708,0 -62.875,-28.167 -62.875,-62.875c0,-17.375 7.083,-33.125 18.417,-44.458c11.333,-11.333 27.125,-18.417 44.458,-18.417l210.958,0c90.167,-171.458 269.958,-291.75 464.792,-303.792l0,-2.125c14,-0.875 28,-1.583 42.167,-1.583c15.958,0 31.875,0.708 47.458,1.958c0.167,0.167 0.167,0.375 0.375,0.542c90.5,7.625 176.083,36.125 250.833,81.292c4.958,3 9.917,6.208 14.875,9.375c5.125,3.375 10.458,6.75 15.417,10.292c5.292,3.708 10.458,7.458 15.417,11c0.542,0.542 1.25,0.875 1.958,1.417c4.583,3.542 9.042,7.083 13.458,10.625c2.125,1.583 4.25,3.375 6.208,4.958c3.708,3 7.083,5.833 10.625,9.042c3.375,3 6.917,6.042 10.292,9.042c3.708,3.375 7.25,6.75 10.792,10.083c109.667,104.667 177.833,252.417 177.833,415.917l-0.042,-0.125Z" style="fill:#fff;fill-rule:nonzero;"/><path d="M180.458,731.542l0,0.042c0,34.702 -28.173,62.875 -62.875,62.875l-54.708,0c-34.702,0 -62.875,-28.173 -62.875,-62.875l0,-0.042c0,-34.702 28.173,-62.875 62.875,-62.875l54.708,0c34.702,0 62.875,28.173 62.875,62.875Z" style="fill:#fff;"/></g><path d="M1222.333,286.375l-231.542,254.583l260.833,353.125l-189.167,0l-178.208,-236.792c-4,0 -18.25,15.625 -21.958,19.542c-67.792,71.25 -132,146.208 -200.083,217.25l-54.917,0l248.708,-272.5l-246.25,-335.25l189.167,0l163.625,217.208c3.125,0.792 25.25,-22.625 29.25,-26.833c59.583,-62.375 115.292,-128.708 175.708,-190.417l54.917,0l-0.083,0.083Zm-53.667,563.792l-389.292,-519.875l-86.625,0l389.292,519.875l86.625,0Z" style="fill-rule:nonzero;"/></svg>